<?xml version="1.0" standalone="no"?>
<!DOCTYPE svg PUBLIC "-//W3C//DTD SVG 20010904//EN"
 "http://www.w3.org/TR/2001/REC-SVG-20010904/DTD/svg10.dtd">
<svg version="1.0" xmlns="http://www.w3.org/2000/svg"
 width="308.000000pt" height="308.000000pt" viewBox="0 0 308.000000 308.000000"
 preserveAspectRatio="xMidYMid meet">
<metadata>
Created by potrace 1.14, written by Peter Selinger 2001-2017
</metadata>
<g transform="translate(0.000000,308.000000) scale(0.100000,-0.100000)"
fill="#000000" stroke="none">
<path d="M2790 2921 c0 -3 -28 -7 -63 -8 -34 -1 -79 -5 -99 -8 -21 -3 -57 -7
-80 -10 -38 -5 -80 -12 -127 -21 -8 -2 -26 -6 -40 -10 -14 -4 -33 -8 -41 -9
-45 -5 -101 -21 -150 -42 -103 -46 -161 -65 -203 -66 -58 -2 -142 9 -204 28
-144 43 -447 31 -648 -25 -241 -68 -438 -186 -606 -365 -144 -152 -225 -280
-299 -471 -106 -273 -118 -569 -34 -836 23 -72 88 -217 135 -298 56 -98 234
-307 314 -368 134 -102 263 -178 365 -214 262 -95 583 -109 856 -38 211 55
421 176 582 337 147 147 220 250 300 424 70 153 109 318 78 336 -33 21 -45 76
-40 193 5 144 4 140 24 140 21 0 43 25 47 53 5 27 -21 150 -48 234 -23 72 -20
91 49 250 22 51 43 109 45 130 3 21 11 52 17 68 7 17 13 64 15 105 4 81 12
172 22 235 9 58 9 69 -1 83 -5 7 -5 12 1 12 7 0 10 49 3 58 -1 1 -3 12 -3 25
-1 12 -3 24 -6 27 -4 3 -11 14 -17 24 -5 11 -19 21 -30 23 -34 7 -114 9 -114
4z"/>
</g>
</svg>
